HIERARCHY
ROOT Hips
{
	OFFSET 0.000000 0.000000 0.000000 
	CHANNELS 6 Xposition Yposition Zposition Yrotation Zrotation Xrotation 
	JOINT Lumbar
	{
		OFFSET 0.000000 0.000000 0.000000 
		CHANNELS 3 Zrotation Xrotation Yrotation
		JOINT Neck
		{
			OFFSET 0.000000 0.445665 0.000000 
			CHANNELS 3 Zrotation Xrotation Yrotation
			End Site
			{
				OFFSET 0.000000 0.227535 0.000000 
			}
		}
		JOINT RightShoulder
		{
			OFFSET 0.019635 0.377685 0.194865 
			CHANNELS 3 Zrotation Xrotation Yrotation
			JOINT RightElbow
			{
				OFFSET 0.000000 -0.243375 0.000000 
				CHANNELS 2 Zrotation Yrotation
				JOINT RightWrist
				{
					OFFSET 0.000000 -0.264825 0.000000 
					CHANNELS 2 Zrotation Xrotation
					End Site
					{
						OFFSET 0.006600 -0.176220 0.000990 
					}
				}
			}
		}
		JOINT LeftShoulder
		{
			OFFSET 0.019635 0.377685 -0.194865 
			CHANNELS 3 Zrotation Xrotation Yrotation
			JOINT LeftElbow
			{
				OFFSET 0.000000 -0.243375 0.000000 
				CHANNELS 2 Zrotation Yrotation
				JOINT LeftWrist
				{
					OFFSET 0.000000 -0.264825 0.000000 
					CHANNELS 2 Zrotation Xrotation
					End Site
					{
						OFFSET 0.006600 -0.176220 -0.000990 
					}
				}
			}
		}
	}
	JOINT RightHip
	{
		OFFSET 0.052140 -0.069960 0.075570 
		CHANNELS 3 Zrotation Xrotation Yrotation
		JOINT RightKnee
		{
			OFFSET 0.000000 -0.402270 0.000000 
			CHANNELS 1 Zrotation
			JOINT RightAnkle
			{
				OFFSET 0.000000 -0.404085 0.000000 
				CHANNELS 3 Zrotation Xrotation Yrotation
				End Site
				{
					OFFSET 0.204105 -0.089430 0.008415 
				}
			}
		}
	}
	JOINT LeftHip
	{
		OFFSET 0.052140 -0.069960 -0.075570 
		CHANNELS 3 Zrotation Xrotation Yrotation
		JOINT LeftKnee
		{
			OFFSET 0.000000 -0.402270 0.000000 
			CHANNELS 1 Zrotation
			JOINT LeftAnkle
			{
				OFFSET 0.000000 -0.404085 0.000000 
				CHANNELS 3 Zrotation Xrotation Yrotation
				End Site
				{
					OFFSET 0.204105 -0.089430 -0.008415 
				}
			}
		}
	}
}
MOTION
Frames: 35
Frame Time: 0.02
0 0.95578 -0 182.65625 0 -3.03734 2.89485 2.24496 -5.41068 -34.69355 3.92606 4.85837 -14.65283 -78.69621 -80.2965 22.1811 72.92636 -22.95625 -1.51611 -9.0671 74.68595 75.38572 25.81491 -67.49277 -31.67001 1.10307 -4.09955 2.81377 -1.63048 -5.70463 -2.49567 -2.76148 -6.70015 -1.89592 4.83452 1.08953 -7.41727 4.61753 2.13958 1.56457
-0 0.95578 -3e-05 182.65644 0 -3.0387 2.87908 2.24655 -5.40662 -34.70733 3.91664 4.85464 -14.52447 -78.6505 -80.19722 22.20337 72.92262 -22.90555 -1.51138 -8.8178 74.66727 75.16964 25.80224 -67.49941 -31.65759 1.13487 -4.10159 2.81678 -1.6281 -5.7006 -2.49368 -2.76177 -6.70243 -1.89682 4.83689 1.07555 -7.41581 4.58039 2.14151 1.58998
-1e-05 0.95578 -6e-05 182.65663 0 -3.04004 2.86347 2.24814 -5.40258 -34.72114 3.90723 4.85091 -14.39634 -78.60502 -80.09824 22.22553 72.91901 -22.85495 -1.50666 -8.56904 74.64857 74.95399 25.78961 -67.50642 -31.64506 1.16643 -4.10371 2.81984 -1.62397 -5.6965 -2.4918 -2.76227 -6.70651 -1.8978 4.83923 1.06181 -7.41429 4.54353 2.14339 1.61511
-1e-05 0.95578 -9e-05 182.65674 0 -3.04133 2.8484 2.24975 -5.39843 -34.73548 3.89772 4.84719 -14.268 -78.5598 -79.9997 22.24749 72.916 -22.80444 -1.50195 -8.31966 74.63009 74.7379 25.77673 -67.51444 -31.63218 1.19737 -4.10622 2.82325 -1.61066 -5.69192 -2.49058 -2.7638 -6.7202 -1.89915 4.84148 1.04887 -7.41239 4.50739 2.14516 1.63932
-0 0.95577 -0.00013 182.6572 0 -3.04293 2.83053 2.25124 -5.39473 -34.74733 3.88865 4.84346 -14.14094 -78.51297 -79.89905 22.27056 72.90993 -22.75365 -1.49722 -8.07317 74.61099 74.52405 25.76487 -67.51648 -31.62139 1.23161 -4.10672 2.82492 -1.64339 -5.68968 -2.48611 -2.76008 -6.68586 -1.89858 4.8442 1.03172 -7.41236 4.46744 2.14757 1.66833
-3e-05 0.95577 -0.00015 182.65694 0 -3.04385 2.81858 2.25296 -5.39016 -34.76422 3.87875 4.83974 -14.01118 -78.46976 -79.8028 22.29124 72.91026 -22.70336 -1.49251 -7.82106 74.59286 74.30572 25.75106 -67.53162 -31.60603 1.25885 -4.11142 2.83019 -1.58044 -5.68264 -2.48835 -2.76735 -6.75117 -1.90203 4.84593 1.02347 -7.40845 4.43559 2.14861 1.68719
-0.00015 0.95577 -0.00014 182.65454 0 -3.04286 2.82337 2.25545 -5.38215 -34.79777 3.86541 4.8362 -13.87134 -78.43419 -79.71852 22.30577 72.92954 -22.65375 -1.48776 -7.54382 74.57999 74.06816 25.72953 -67.58091 -31.57861 1.26671 -4.12888 2.84671 -1.22694 -5.66033 -2.5115 -2.80729 -7.12045 -1.91736 4.84491 1.04056 -7.39261 4.4258 2.14575 1.67725
-0.0003 0.95577 -0.00011 182.65145 0 -3.04119 2.83407 2.25812 -5.37343 -34.83593 3.85142 4.83265 -13.72922 -78.40263 -79.63895 22.31785 72.95511 -22.60439 -1.48301 -7.26235 74.56765 73.82706 25.70639 -67.64383 -31.54649 1.26752 -4.15041 2.86664 -0.78119 -5.6335 -2.54104 -2.85793 -7.5856 -1.93661 4.84289 1.06651 -7.37304 4.42421 2.14153 1.65718
-0.00044 0.95577 -8e-05 182.64878 0 -3.03987 2.84181 2.26061 -5.36572 -34.87021 3.83845 4.82902 -13.58951 -78.37081 -79.5568 22.33069 72.97698 -22.55566 -1.47834 -6.98876 74.55327 73.59173 25.68556 -67.70198 -31.51609 1.27161 -4.16935 2.88416 -0.39445 -5.61007 -2.56608 -2.90221 -7.98841 -1.95356 4.84133 1.08796 -7.35597 4.41906 2.13799 1.64221
-0.00058 0.95577 -6e-05 182.64566 0 -3.03838 2.85069 2.26354 -5.35518 -34.91201 3.82244 4.82575 -13.44353 -78.33262 -79.47515 22.34485 73.00227 -22.50504 -1.4734 -6.69013 74.54621 73.33892 25.65831 -67.75429 -31.4873 1.27539 -4.19136 2.90525 0.06398 -5.5811 -2.59772 -2.95283 -8.46973 -1.97267 4.83973 1.11143 -7.33558 4.41323 2.13417 1.62517
-0.00072 0.95577 -3e-05 182.6433 0 -3.03708 2.85862 2.26557 -5.35029 -34.93926 3.81257 4.82174 -13.31071 -78.30834 -79.39532 22.35588 73.02207 -22.45687 -1.46895 -6.44255 74.52437 73.12165 25.64372 -67.82179 -31.45419 1.27811 -4.20802 2.91977 0.3955 -5.56244 -2.61731 -2.99276 -8.81111 -1.98826 4.838 1.13275 -7.32113 4.41073 2.13061 1.61002
-0.00083 0.95577 1e-05 182.64314 0 -3.03642 2.86226 2.26537 -5.36173 -34.92519 3.82014 4.81538 -13.20886 -78.32402 -79.30386 22.35725 73.02415 -22.42911 -1.46652 -6.33765 74.45869 73.00348 25.66735 -67.92996 -31.40913 1.28001 -4.20828 2.91485 0.34994 -5.57462 -2.60034 -3.00093 -8.73567 -1.99281 4.83601 1.14628 -7.32475 4.41565 2.12808 1.60253
-0.00094 0.95577 5e-05 182.64376 0 -3.03598 2.86479 2.26419 -5.37877 -34.89633 3.83382 4.80831 -13.12128 -78.35309 -79.21658 22.35583 73.02071 -22.40163 -1.46446 -6.28416 74.37864 72.92119 25.70326 -68.05264 -31.36012 1.28105 -4.20311 2.90327 0.1743 -5.5971 -2.57132 -2.99791 -8.51739 -1.99375 4.83396 1.15728 -7.33435 4.42358 2.12586 1.59729
-0.00105 0.95577 8e-05 182.64406 0 -3.03547 2.86798 2.26325 -5.39289 -34.87428 3.84451 4.80175 -13.03122 -78.37433 -79.13805 22.35683 73.0204 -22.36456 -1.46175 -6.20663 74.30706 72.82237 25.73164 -68.16727 -31.31368 1.28219 -4.20084 2.89502 0.06086 -5.61403 -2.54896 -2.99977 -8.36907 -1.99657 4.83204 1.16924 -7.3407 4.42996 2.1235 1.59101
-0.00116 0.95578 0.00012 182.64423 0 -3.0348 2.8707 2.26317 -5.40861 -34.85206 3.85617 4.7944 -12.92476 -78.403 -79.01634 22.35309 73.01754 -22.36589 -1.46101 -6.13169 74.22734 72.72429 25.76808 -68.28829 -31.26373 1.28419 -4.19692 2.88562 -0.06255 -5.63445 -2.52188 -3.00286 -8.2028 -1.99851 4.82964 1.1823 -7.34913 4.43737 2.12107 1.58442
-0.00126 0.95578 0.00015 182.64481 0 -3.03453 2.87407 2.26109 -5.42231 -34.8266 3.86716 4.7885 -12.85515 -78.41939 -78.98349 22.35833 73.01879 -22.28924 -1.45635 -6.06379 74.16113 72.63336 25.79078 -68.39954 -31.22029 1.28445 -4.19507 2.877 -0.19708 -5.65014 -2.50161 -3.00063 -8.03874 -2.00138 4.82825 1.19236 -7.35473 4.44327 2.1189 1.57917
-0.00135 0.95578 0.00015 182.64694 0 -3.03533 2.87957 2.25357 -5.42943 -34.7958 3.87578 4.78702 -12.89003 -78.39831 -79.21236 22.39121 73.03101 -21.9803 -1.44013 -6.00126 74.13581 72.55238 25.77177 -68.47795 -31.19507 1.27849 -4.20057 2.87212 -0.33266 -5.65004 -2.5038 -2.98608 -7.91516 -2.00786 4.82966 1.19452 -7.35071 4.44396 2.11732 1.57693
-0.00142 0.95578 0.00014 182.64939 0 -3.03654 2.88572 2.24411 -5.43429 -34.76224 3.88337 4.78698 -12.96042 -78.36451 -79.52733 22.43282 73.04779 -21.59591 -1.42009 -5.94434 74.12447 72.47758 25.73873 -68.54638 -31.17665 1.27111 -4.20829 2.86824 -0.47499 -5.64489 -2.5131 -2.96657 -7.79838 -2.01536 4.83208 1.19372 -7.3437 4.44304 2.11602 1.57603
-0.0015 0.95578 0.00013 182.65129 0 -3.03756 2.89152 2.23566 -5.43992 -34.72994 3.89073 4.78614 -13.01036 -78.33664 -79.79137 22.46905 73.06367 -21.25727 -1.40223 -5.88584 74.10681 72.40063 25.71249 -68.62087 -31.15564 1.26553 -4.21478 2.86391 -0.61329 -5.64221 -2.51865 -2.94952 -7.67831 -2.02231 4.83403 1.1944 -7.33828 4.44302 2.11466 1.57467
-0.00159 0.95578 0.00012 182.65482 0 -3.03859 2.89754 2.22663 -5.44675 -34.6971 3.90107 4.78588 -13.07867 -78.3084 -80.10507 22.51119 73.07469 -20.87068 -1.38248 -5.82502 74.08888 72.32211 25.68456 -68.68954 -31.13252 1.25517 -4.22197 2.85935 -0.76018 -5.63916 -2.52598 -2.93125 -7.55399 -2.02953 4.83603 1.19451 -7.33209 4.44242 2.11304 1.57277
-0.00166 0.95578 0.00011 182.65516 0 -3.03969 2.90324 2.21834 -5.45059 -34.66491 3.90514 4.78475 -13.11735 -78.27802 -80.33613 22.5431 73.09666 -20.56552 -1.36581 -5.76973 74.07457 72.24793 25.65707 -68.76764 -31.11528 1.25427 -4.22835 2.8556 -0.88905 -5.63552 -2.53146 -2.91447 -7.4422 -2.03644 4.83817 1.195 -7.32675 4.44257 2.11202 1.57226
-0.00171 0.95577 8e-05 182.64524 0 -3.04092 2.9081 2.21286 -5.44557 -34.63533 3.8899 4.78117 -13.06197 -78.24225 -80.31417 22.5449 73.15054 -20.50824 -1.35801 -5.72793 74.07046 72.18325 25.63092 -68.87517 -31.11408 1.28137 -4.2316 2.85382 -0.9663 -5.63182 -2.5301 -2.90304 -7.36221 -2.04269 4.84046 1.19846 -7.32419 4.44545 2.11255 1.57544
-0.00175 0.95577 5e-05 182.63233 0 -3.04217 2.91256 2.20815 -5.43781 -34.60652 3.86879 4.77663 -12.97605 -78.20522 -80.20662 22.53607 73.21487 -20.53466 -1.35353 -5.69131 74.06878 72.12269 25.60639 -68.99226 -31.11824 1.31776 -4.23402 2.85285 -1.02451 -5.62762 -2.52671 -2.89334 -7.29556 -2.04853 4.84284 1.20223 -7.32262 4.44911 2.11366 1.57991
-0.0018 0.95577 3e-05 182.62173 0 -3.04337 2.91709 2.20289 -5.43202 -34.57742 3.8518 4.77233 -12.90645 -78.17037 -80.14082 22.53189 73.27251 -20.5198 -1.34792 -5.65239 74.06379 72.0608 25.58305 -69.10424 -31.11911 1.34889 -4.23708 2.85157 -1.09099 -5.62338 -2.52431 -2.8829 -7.22422 -2.05427 4.84514 1.20503 -7.32077 4.45218 2.11453 1.5837
-0.00185 0.95577 -0 182.60721 0 -3.04479 2.92215 2.19839 -5.42306 -34.54814 3.82859 4.76885 -12.82809 -78.12819 -80.06645 22.52871 73.33817 -20.51607 -1.34064 -5.61356 74.06905 71.99709 25.55053 -69.21912 -31.12415 1.3843 -4.23917 2.8501 -1.15961 -5.62 -2.52187 -2.87206 -7.14709 -2.06124 4.84763 1.21105 -7.31814 4.45607 2.11535 1.58801
-0.00189 0.95577 -3e-05 182.60002 0 -3.04574 2.92595 2.19254 -5.42012 -34.51924 3.817 4.76349 -12.75988 -78.10127 -79.98789 22.52092 73.38997 -20.50994 -1.3376 -5.57555 74.0528 71.93777 25.5384 -69.33038 -31.12128 1.4131 -4.24297 2.8492 -1.21888 -5.61489 -2.51893 -2.86255 -7.0853 -2.06557 4.84974 1.21068 -7.31736 4.45864 2.11638 1.59144
-0.00192 0.95577 -5e-05 182.61488 0 -3.04528 2.92683 2.18239 -5.43423 -34.49279 3.83844 4.75251 -12.73036 -78.11558 -79.92354 22.50274 73.39724 -20.47751 -1.34599 -5.53997 73.98083 71.89204 25.57671 -69.429 -31.09824 1.4207 -4.25236 2.84973 -1.259 -5.60424 -2.5151 -2.85623 -7.06092 -2.06234 4.85084 1.19097 -7.32188 4.45563 2.11803 1.59298
-0.00194 0.95577 -6e-05 182.637 0 -3.04433 2.92634 2.17093 -5.45456 -34.46632 3.87185 4.73977 -12.71144 -78.14543 -79.85674 22.48076 73.39087 -20.43996 -1.35845 -5.50493 73.8861 71.85027 25.63698 -69.52364 -31.06613 1.42141 -4.26335 2.8508 -1.28994 -5.59203 -2.51081 -2.85124 -7.05175 -2.05651 4.85153 1.16514 -7.32817 4.45152 2.11984 1.59346
-0.00197 0.95578 -8e-05 182.65509 0 -3.04364 2.92621 2.16028 -5.47217 -34.43892 3.90011 4.72825 -12.68527 -78.16925 -79.78731 22.46013 73.39315 -20.40463 -1.36872 -5.46839 73.79908 71.80477 25.69036 -69.62053 -31.03658 1.42575 -4.27313 2.85159 -1.32365 -5.58115 -2.50664 -2.84571 -7.03678 -2.05209 4.85237 1.14323 -7.33337 4.44918 2.12144 1.59381
-0.00199 0.95578 -0.0001 182.67618 0 -3.04282 2.92731 2.14867 -5.48916 -34.41584 3.927 4.71495 -12.66792 -78.18931 -79.73022 22.43893 73.3854 -20.37277 -1.38055 -5.43645 73.72387 71.76677 25.72911 -69.71639 -31.01515 1.42847 -4.28491 2.85257 -1.36252 -5.5677 -2.50269 -2.83993 -7.01779 -2.04672 4.85338 1.11657 -7.33975 4.44186 2.12361 1.59662
-0.00201 0.95578 -0.00011 182.69276 0 -3.04215 2.92536 2.13883 -5.50903 -34.38332 3.95959 4.70491 -12.63563 -78.22011 -79.64863 22.42041 73.39521 -20.33123 -1.39005 -5.39608 73.6179 71.71501 25.80554 -69.81271 -30.97292 1.43261 -4.29295 2.85326 -1.38885 -5.55914 -2.49833 -2.83498 -7.01033 -2.04267 4.85393 1.0983 -7.34414 4.44421 2.12465 1.59423
-0.00201 0.95579 -0.0001 182.6953 0 -3.04202 2.91658 2.1336 -5.53475 -34.32836 4.00566 4.70471 -12.55461 -78.28316 -79.49421 22.3927 73.45664 -20.26518 -1.3922 -5.32334 73.43792 71.61646 25.96517 -69.91634 -30.88955 1.44401 -4.29003 2.8531 -1.38172 -5.56533 -2.4918 -2.83191 -7.03335 -2.0432 4.85339 1.10518 -7.34225 4.47726 2.12245 1.5759
-0.00201 0.9558 -7e-05 182.69302 0 -3.04206 2.90449 2.13033 -5.56331 -34.26316 4.05697 4.70777 -12.459 -78.35495 -79.3166 22.37245 73.53628 -20.1889 -1.39183 -5.24392 73.22625 71.50572 26.16601 -70.01944 -30.78292 1.4567 -4.28334 2.8526 -1.36256 -5.57634 -2.4851 -2.82962 -7.06695 -2.0451 4.85238 1.12064 -7.33835 4.51946 2.11912 1.55266
-0.002 0.95581 -5e-05 182.69281 0 -3.04204 2.89312 2.12654 -5.59087 -34.20033 4.1055 4.70914 -12.37368 -78.41898 -79.15395 22.35865 73.60753 -20.11639 -1.39257 -5.17314 73.02622 71.40524 26.35663 -70.11957 -30.67761 1.46769 -4.27855 2.85219 -1.34976 -5.58459 -2.47927 -2.82701 -7.09402 -2.04617 4.85155 1.13182 -7.33562 4.55492 2.11635 1.53291
-0.002 0.95582 -4e-05 182.69337 0 -3.04194 2.88519 2.12105 -5.61718 -34.14733 4.15614 4.71144 -12.27421 -78.50094 -78.97295 22.29781 73.67844 -20.04785 -1.39366 -5.07795 72.83919 71.28354 26.50726 -70.23366 -30.61091 1.48325 -4.27306 2.85207 -1.333 -5.59518 -2.47012 -2.82431 -7.12878 -2.04799 4.85087 1.14429 -7.33193 4.60089 2.11338 1.50798
